<?xml version="1.0" standalone="no"?>
<!DOCTYPE svg PUBLIC "-//W3C//DTD SVG 20010904//EN"
 "http://www.w3.org/TR/2001/REC-SVG-20010904/DTD/svg10.dtd">
<svg version="1.0" xmlns="http://www.w3.org/2000/svg"
 width="700.000000pt" height="700.000000pt" viewBox="0 0 700.000000 700.000000"
 preserveAspectRatio="xMidYMid meet">
<metadata>
Created by potrace 1.14, written by Peter Selinger 2001-2017
</metadata>
<g transform="translate(0.000000,700.000000) scale(0.100000,-0.100000)"
fill="#000000" stroke="none">
<path d="M3729 5596 c-2 -2 -32 -6 -65 -9 -264 -25 -573 -173 -779 -374 -110
-107 -155 -161 -231 -279 l-66 -102 -51 19 c-56 21 -69 24 -162 40 -57 10
-222 6 -275 -7 -192 -47 -329 -122 -452 -247 -120 -123 -200 -276 -232 -448
-18 -93 -18 -250 -1 -300 9 -23 10 -41 4 -44 -5 -4 -9 -4 -9 -1 0 7 -178 -42
-255 -71 -340 -129 -608 -394 -730 -723 -1 -3 -7 -18 -13 -33 -33 -79 -56
-234 -56 -382 -1 -82 2 -166 6 -185 4 -19 10 -51 13 -70 18 -99 88 -272 158
-390 54 -91 180 -234 278 -316 97 -80 258 -167 394 -213 191 -63 74 -60 2145
-57 1037 1 1896 5 1910 9 14 3 41 9 60 13 113 20 312 104 419 176 293 199 490
501 546 837 13 83 14 322 1 381 -3 14 -13 58 -22 99 -47 216 -163 421 -331
587 -189 188 -396 291 -677 338 -32 6 -48 23 -42 46 3 8 7 35 10 60 3 25 9 65
13 90 10 59 9 292 0 355 -44 280 -157 522 -347 737 -157 178 -388 330 -607
398 -76 24 -79 25 -183 47 -65 13 -360 28 -371 19z"/>
</g>
</svg>
